<?xml version="1.0" encoding="UTF-8" standalone="no"?>
<!-- Created with Inkscape (http://www.inkscape.org/) -->

<svg
   xmlns:dc="http://purl.org/dc/elements/1.1/"
   xmlns:cc="http://creativecommons.org/ns#"
   xmlns:rdf="http://www.w3.org/1999/02/22-rdf-syntax-ns#"
   xmlns:svg="http://www.w3.org/2000/svg"
   xmlns="http://www.w3.org/2000/svg"
   xmlns:sodipodi="http://sodipodi.sourceforge.net/DTD/sodipodi-0.dtd"
   xmlns:inkscape="http://www.inkscape.org/namespaces/inkscape"
   width="210mm"
   height="297mm"
   viewBox="0 0 744.09448819 1052.3622047"
   id="svg2"
   version="1.1"
   inkscape:version="0.91 r13725"
   sodipodi:docname="cineasta.svg">
  <defs
     id="defs4" />
  <sodipodi:namedview
     id="base"
     pagecolor="#ffffff"
     bordercolor="#666666"
     borderopacity="1.0"
     inkscape:pageopacity="0.0"
     inkscape:pageshadow="2"
     inkscape:zoom="0.7"
     inkscape:cx="245.64459"
     inkscape:cy="777.64868"
     inkscape:document-units="px"
     inkscape:current-layer="g3353"
     showgrid="false"
     inkscape:window-width="1680"
     inkscape:window-height="988"
     inkscape:window-x="-8"
     inkscape:window-y="-8"
     inkscape:window-maximized="1" />
  <metadata
     id="metadata7">
    <rdf:RDF>
      <cc:Work
         rdf:about="">
        <dc:format>image/svg+xml</dc:format>
        <dc:type
           rdf:resource="http://purl.org/dc/dcmitype/StillImage" />
        <dc:title></dc:title>
      </cc:Work>
    </rdf:RDF>
  </metadata>
  <g
     inkscape:label="Layer 1"
     inkscape:groupmode="layer"
     id="layer1">
    <g
       id="layer1-8"
       inkscape:label="Layer 1"
       transform="translate(89.815225,331.15687)">
      <g
         transform="translate(-5.7142857,135.21935)"
         id="g3353">
        <g
           id="g4226"
           transform="matrix(5.1192381,0,0,5.1192381,-1100.2103,-475.06524)">
          <path
             style="fill:#39c571;fill-opacity:1;fill-rule:evenodd;stroke:none;stroke-width:1px;stroke-linecap:butt;stroke-linejoin:miter;stroke-opacity:1"
             d="m 249.55358,42.232141 -0.17857,-6.07143 8.125,-2.58929 4.375,-3.48214 8.75,-5.17857 7.94643,-4.82143 5.89285,-3.03571 3.83929,2.94642 2.76786,7.76786 -2.67858,3.57143 c 0,0 -10.71428,3.83929 -11.25,4.73214 -0.53571,0.89286 -8.30357,7.14286 -8.30357,7.14286 l -8.21428,3.57143 -5.44643,-2.94643 -4.91072,-0.53571 z"
             id="path3387"
             inkscape:connector-curvature="0" />
          <path
             style="fill:#222222;fill-opacity:1;fill-rule:evenodd"
             inkscape:connector-curvature="0"
             d="m 262.57657,47.63606 c 0.20774,0.75877 0.31866,1.55756 0.31866,2.38226 l 35,0 c 1.10457,0 2,0.89543 2,2 l 0,28 c 0,1.10457 -0.89543,2 -2,2 l -44,0 c -1.10457,0 -2,-0.89543 -2,-2 l 0,-21.22302 c -4.00798,-0.90946 -7,-4.4938 -7,-8.77698 0,-2.73821 1.22283,-5.19081 3.1522,-6.84151 l -2.43681,-4.22067 c -0.55228,-0.95658 -0.22453,-2.17976 0.73205,-2.73205 l 38.10512,-22 c 0.95658,-0.55228 2.17976,-0.22453 2.73205,0.73205 l 7,12.12436 c 0.55228,0.95658 0.22453,2.17976 -0.73205,2.73205 l -30.87122,17.82351 z m -10.9848,-6.32026 c 0.73521,-0.19409 1.50726,-0.29748 2.30346,-0.29748 0.46607,0 0.92387,0.0354 1.37085,0.10374 l -0.78507,-4.97784 -4.40629,2.54397 z m 9.09252,2.79396 4.1261,-2.38221 -1.66913,-10.58333 -4.94876,2.85717 1.35864,8.61467 c 0.0223,0.14133 0.0292,0.28154 0.022,0.41892 0.40041,0.32596 0.77226,0.68566 1.1112,1.07478 l 0,0 z m 6.16846,-15.10837 1.66913,10.58333 4.94877,-2.85717 -1.66913,-10.58333 z m 8.66025,-5 1.66914,10.58333 4.94876,-2.85717 -1.66913,-10.58333 z m 8.66026,-5 1.66913,10.58333 3.87335,-2.23627 -5,-8.66026 z m -30.27803,36.01693 c 2.76142,0 5,-2.23858 5,-5 0,-2.76142 -2.23858,-5 -5,-5 -2.76142,0 -5,2.23858 -5,5 0,2.76142 2.23858,5 5,5 z"
             id="path3368"
             sodipodi:nodetypes="ccsssssscscsssssscccsccccccccccccccccccccccccccccsssss" />
          <g
             id="g4244"
             transform="matrix(1.1253403,0,0,1.1253403,-35.079373,-8.8875816)">
            <path
               id="path4196"
               d="m 273.09166,65.533159 c 1.27997,-2.219499 2.78753,-4.097713 4.21928,-5.343719 1.72507,-1.501247 3.36672,-2.089215 4.25181,-1.578808 0.92237,0.531899 1.25689,2.351343 0.76333,4.747115 -0.37316,1.811341 -1.26419,3.96412 -2.47923,6.071062 -1.24574,2.160159 -2.67224,4.063288 -4.08451,5.297768 -1.78711,1.562186 -3.51481,2.127483 -4.41956,1.60574 -0.87791,-0.506299 -1.21368,-2.165218 -0.79251,-4.383348 0.35586,-1.874181 1.2489,-4.17459 2.54139,-6.41581 z"
               stroke-miterlimit="10"
               inkscape:connector-curvature="0"
               style="fill:none;stroke:#39c571;stroke-width:0.91293597;stroke-miterlimit:10;stroke-opacity:1" />
            <g
               style="stroke:#39c571;stroke-opacity:1"
               transform="matrix(0.038039,0,0,0.038039,265.77012,65.115844)"
               id="g4218">
              <circle
                 style="fill:#39c571;fill-opacity:1;stroke:#39c571;stroke-opacity:1"
                 cx="281.26746"
                 cy="61.676712"
                 r="50.167"
                 id="circle4192" />
              <path
                 style="fill:none;stroke:#39c571;stroke-width:24;stroke-miterlimit:10;stroke-opacity:1"
                 inkscape:connector-curvature="0"
                 stroke-miterlimit="10"
                 d="m 281.26747,-40.32328 c 67.356,0 129.928,9.665 177.107,25.907 56.844,19.569 91.794,49.233 91.794,76.093 0,27.991 -37.041,59.503 -98.083,79.728 -46.151,15.291 -106.879,23.272 -170.818,23.272 -65.554,0 -127.63,-7.492 -174.29,-23.441 -59.046001,-20.182 -94.611001,-52.103 -94.611001,-79.559 0,-26.642 33.37,-56.076 89.415001,-75.616 47.355,-16.509 111.472,-26.384 179.486,-26.384 z"
                 id="path4194" />
              <path
                 style="fill:none;stroke:#39c571;stroke-width:24;stroke-miterlimit:10;stroke-opacity:1"
                 inkscape:connector-curvature="0"
                 stroke-miterlimit="10"
                 d="m 192.55947,113.53072 c -33.746,-58.292 -56.731,-117.287 -66.312,-166.255 -11.544,-58.999 -3.382,-104.109 19.864,-117.566 24.224,-14.024 70.055,2.244 118.14,44.94 36.356,32.28 73.688,80.837 105.723,136.173 32.844,56.733 57.461,114.209 67.036,162.582 12.117,61.213 2.309,107.984 -21.453,121.74 -23.057,13.348 -65.249,-0.784 -110.239,-39.499 -38.013,-32.711 -78.682,-83.253 -112.759,-142.115 z"
                 id="path4198" />
            </g>
          </g>
          <g
             id="g4213">
            <g
               style="font-style:normal;font-weight:normal;font-size:40px;line-height:125%;font-family:sans-serif;letter-spacing:0px;word-spacing:0px;fill:#000000;fill-opacity:1;stroke:none;stroke-width:1px;stroke-linecap:butt;stroke-linejoin:miter;stroke-opacity:1"
               id="text4251">
              <path
                 d="m 251.32615,88.600698 q 0,-0.63 0.2,-1.09 0.2,-0.46 0.55,-0.76 0.35,-0.3 0.81,-0.44 0.47,-0.15 1,-0.15 0.34,0 0.67,0.05 0.34,0.04 0.72,0.16 l -0.19,0.71 q -0.33,-0.12 -0.61,-0.15 -0.27,-0.04 -0.55,-0.04 -0.36,0 -0.68,0.1 -0.32,0.09 -0.56,0.3 -0.23,0.2 -0.37,0.53 -0.14,0.32 -0.14,0.78 0,0.44 0.13,0.76 0.13,0.31 0.36,0.52 0.24,0.2 0.57,0.3 0.33,0.1 0.73,0.1 0.32,0 0.61,-0.03 0.3,-0.04 0.65,-0.16 l 0.12,0.69 q -0.35,0.13 -0.71,0.18 -0.36,0.06 -0.78,0.06 -0.56,0 -1.03,-0.15 -0.46,-0.16 -0.8,-0.46 -0.33,-0.3 -0.52,-0.75 -0.18,-0.46 -0.18,-1.06 z"
                 style="font-size:10px;fill:#222222;fill-opacity:1"
                 id="path4193"
                 inkscape:connector-curvature="0" />
              <path
                 d="m 257.92615,85.550698 q -0.26,0 -0.45,-0.18 -0.19,-0.18 -0.19,-0.49 0,-0.31 0.19,-0.49 0.19,-0.18 0.45,-0.18 0.27,0 0.45,0.18 0.19,0.18 0.19,0.49 0,0.31 -0.19,0.49 -0.18,0.18 -0.45,0.18 z m -0.21,1.41 -1.34,0 0,-0.69 2.16,0 0,2.85 q 0,0.69 0.19,0.93 0.19,0.23 0.57,0.23 0.29,0 0.53,-0.07 0.25,-0.07 0.39,-0.15 l 0.12,0.7 q -0.06,0.03 -0.17,0.08 -0.11,0.04 -0.26,0.08 -0.14,0.04 -0.32,0.07 -0.17,0.03 -0.36,0.03 -0.44,0 -0.73,-0.12 -0.29,-0.12 -0.47,-0.36 -0.17,-0.24 -0.24,-0.59 -0.07,-0.36 -0.07,-0.83 l 0,-2.16 z"
                 style="font-size:10px;fill:#222222;fill-opacity:1"
                 id="path4195"
                 inkscape:connector-curvature="0" />
              <path
                 d="m 261.54615,86.400698 q 0.45,-0.11 0.89,-0.17 0.45,-0.06 0.84,-0.06 0.93,0 1.4,0.48 0.48,0.48 0.48,1.54 l 0,2.72 -0.82,0 0,-2.57 q 0,-0.45 -0.08,-0.73 -0.08,-0.28 -0.23,-0.43 -0.14,-0.16 -0.35,-0.22 -0.2,-0.06 -0.44,-0.06 -0.2,0 -0.43,0.03 -0.22,0.02 -0.43,0.06 l 0,3.92 -0.83,0 0,-4.51 z"
                 style="font-size:10px;fill:#222222;fill-opacity:1"
                 id="path4197"
                 inkscape:connector-curvature="0" />
              <path
                 d="m 268.42615,86.160698 q 0.94,0 1.45,0.59 0.51,0.58 0.51,1.77 l 0,0.29 -3.32,0 q 0.05,0.72 0.47,1.1 0.43,0.37 1.2,0.37 0.44,0 0.75,-0.07 0.31,-0.07 0.47,-0.15 l 0.11,0.7 q -0.15,0.08 -0.54,0.17 -0.39,0.09 -0.88,0.09 -0.6,0 -1.06,-0.18 -0.45,-0.19 -0.75,-0.51 -0.3,-0.32 -0.45,-0.76 -0.15,-0.45 -0.15,-0.97 0,-0.62 0.19,-1.08 0.19,-0.46 0.5,-0.76 0.31,-0.3 0.7,-0.45 0.39,-0.15 0.8,-0.15 z m 1.12,1.98 q 0,-0.59 -0.31,-0.93 -0.31,-0.35 -0.82,-0.35 -0.29,0 -0.53,0.11 -0.23,0.11 -0.4,0.29 -0.17,0.18 -0.27,0.41 -0.1,0.23 -0.13,0.47 l 2.46,0 z"
                 style="font-size:10px;fill:#222222;fill-opacity:1"
                 id="path4199"
                 inkscape:connector-curvature="0" />
              <path
                 d="m 273.38615,90.320698 q 0.31,0 0.55,-0.02 0.25,-0.02 0.41,-0.05 l 0,-1.38 q -0.16,-0.05 -0.39,-0.08 -0.22,-0.03 -0.47,-0.03 -0.23,0 -0.45,0.04 -0.22,0.03 -0.39,0.12 -0.17,0.09 -0.28,0.24 -0.11,0.14 -0.11,0.36 0,0.45 0.3,0.63 0.31,0.17 0.83,0.17 z m -0.08,-4.16 q 0.52,0 0.87,0.13 0.36,0.13 0.58,0.36 0.22,0.23 0.31,0.56 0.09,0.33 0.09,0.72 l 0,2.9 q -0.29,0.05 -0.77,0.12 -0.47,0.07 -0.97,0.07 -0.38,0 -0.74,-0.07 -0.36,-0.06 -0.64,-0.22 -0.28,-0.17 -0.45,-0.46 -0.17,-0.29 -0.17,-0.74 0,-0.4 0.17,-0.67 0.18,-0.28 0.45,-0.45 0.28,-0.17 0.63,-0.24 0.36,-0.08 0.72,-0.08 0.49,0 0.96,0.11 l 0,-0.23 q 0,-0.21 -0.05,-0.4 -0.04,-0.2 -0.17,-0.36 -0.12,-0.16 -0.34,-0.25 -0.21,-0.1 -0.55,-0.1 -0.43,0 -0.75,0.06 -0.32,0.06 -0.49,0.12 l -0.1,-0.68 q 0.17,-0.08 0.56,-0.14 0.4,-0.06 0.85,-0.06 z"
                 style="font-size:10px;fill:#222222;fill-opacity:1"
                 id="path4201"
                 inkscape:connector-curvature="0" />
              <path
                 d="m 279.34615,89.750698 q 0,-0.25 -0.21,-0.41 -0.2,-0.16 -0.51,-0.28 -0.3,-0.12 -0.66,-0.23 -0.36,-0.12 -0.67,-0.29 -0.3,-0.17 -0.51,-0.42 -0.2,-0.25 -0.2,-0.65 0,-0.56 0.45,-0.93 0.46,-0.38 1.43,-0.38 0.38,0 0.78,0.06 0.41,0.05 0.7,0.14 l -0.15,0.74 q -0.08,-0.04 -0.22,-0.08 -0.14,-0.05 -0.32,-0.08 -0.18,-0.04 -0.39,-0.06 -0.2,-0.02 -0.39,-0.02 -1.08,0 -1.08,0.59 0,0.21 0.2,0.36 0.21,0.14 0.52,0.26 0.31,0.12 0.67,0.25 0.36,0.12 0.67,0.3 0.31,0.18 0.51,0.44 0.21,0.25 0.21,0.64 0,0.63 -0.49,0.98 -0.49,0.34 -1.55,0.34 -0.48,0 -0.88,-0.08 -0.4,-0.08 -0.76,-0.24 l 0.16,-0.75 q 0.35,0.16 0.73,0.27 0.39,0.1 0.83,0.1 1.13,0 1.13,-0.57 z"
                 style="font-size:10px;fill:#222222;fill-opacity:1"
                 id="path4203"
                 inkscape:connector-curvature="0" />
              <path
                 d="m 283.26615,86.270698 1.96,0 0,0.69 -1.96,0 0,2.16 q 0,0.35 0.05,0.57 0.05,0.22 0.16,0.36 0.12,0.13 0.3,0.18 0.18,0.05 0.44,0.05 0.36,0 0.58,-0.06 0.22,-0.06 0.42,-0.16 l 0.12,0.7 q -0.14,0.06 -0.45,0.16 -0.3,0.1 -0.75,0.1 -0.52,0 -0.85,-0.12 -0.33,-0.12 -0.52,-0.36 -0.18,-0.24 -0.25,-0.59 -0.07,-0.36 -0.07,-0.83 l 0,-2.16 -0.98,0 0,-0.69 0.98,0 0,-1.3 0.82,-0.14 0,1.44 z"
                 style="font-size:10px;fill:#222222;fill-opacity:1"
                 id="path4205"
                 inkscape:connector-curvature="0" />
              <path
                 d="m 288.38615,90.320698 q 0.31,0 0.55,-0.02 0.25,-0.02 0.41,-0.05 l 0,-1.38 q -0.16,-0.05 -0.39,-0.08 -0.22,-0.03 -0.47,-0.03 -0.23,0 -0.45,0.04 -0.22,0.03 -0.39,0.12 -0.17,0.09 -0.28,0.24 -0.11,0.14 -0.11,0.36 0,0.45 0.3,0.63 0.31,0.17 0.83,0.17 z m -0.08,-4.16 q 0.52,0 0.87,0.13 0.36,0.13 0.58,0.36 0.22,0.23 0.31,0.56 0.09,0.33 0.09,0.72 l 0,2.9 q -0.29,0.05 -0.77,0.12 -0.47,0.07 -0.97,0.07 -0.38,0 -0.74,-0.07 -0.36,-0.06 -0.64,-0.22 -0.28,-0.17 -0.45,-0.46 -0.17,-0.29 -0.17,-0.74 0,-0.4 0.17,-0.67 0.18,-0.28 0.45,-0.45 0.28,-0.17 0.63,-0.24 0.36,-0.08 0.72,-0.08 0.49,0 0.96,0.11 l 0,-0.23 q 0,-0.21 -0.05,-0.4 -0.04,-0.2 -0.17,-0.36 -0.12,-0.16 -0.34,-0.25 -0.21,-0.1 -0.55,-0.1 -0.43,0 -0.75,0.06 -0.32,0.06 -0.49,0.12 l -0.1,-0.68 q 0.17,-0.08 0.56,-0.14 0.4,-0.06 0.85,-0.06 z"
                 style="font-size:10px;fill:#222222;fill-opacity:1"
                 id="path4207"
                 inkscape:connector-curvature="0" />
              <path
                 d="m 295.21615,88.840698 q 0,0.45 -0.12,0.85 -0.11,0.4 -0.38,0.7 -0.26,0.3 -0.68,0.48 -0.42,0.17 -1.02,0.17 -0.63,0 -1.05,-0.16 -0.42,-0.16 -0.71,-0.39 l 0.47,-0.98 q 0.25,0.16 0.55,0.31 0.31,0.15 0.63,0.15 0.48,0 0.77,-0.25 0.3,-0.26 0.3,-0.95 l 0,-3.03 -2.07,0 0,-1.02 3.31,0 0,4.12 z"
                 style="font-style:normal;font-variant:normal;font-weight:bold;font-stretch:normal;font-size:10px;font-family:'Ubuntu Mono';-inkscape-font-specification:'Ubuntu Mono Bold';fill:#39c571;fill-opacity:1"
                 id="path4209"
                 inkscape:connector-curvature="0" />
              <path
                 d="m 298.15615,90.010698 q 0.31,0 0.51,-0.06 0.21,-0.07 0.33,-0.18 0.12,-0.12 0.16,-0.26 0.05,-0.15 0.05,-0.3 0,-0.19 -0.11,-0.34 -0.11,-0.15 -0.28,-0.26 -0.17,-0.12 -0.38,-0.21 -0.21,-0.1 -0.42,-0.18 -0.28,-0.1 -0.58,-0.23 -0.3,-0.13 -0.55,-0.33 -0.24,-0.2 -0.4,-0.49 -0.16,-0.3 -0.16,-0.74 0,-0.87 0.56,-1.36 0.57,-0.49 1.56,-0.49 0.57,0 0.99,0.13 0.43,0.13 0.72,0.29 l -0.36,0.95 q -0.25,-0.14 -0.56,-0.24 -0.3,-0.1 -0.7,-0.1 -0.98,0 -0.98,0.71 0,0.18 0.1,0.32 0.1,0.13 0.25,0.24 0.16,0.1 0.35,0.18 0.2,0.08 0.39,0.15 0.29,0.11 0.6,0.25 0.32,0.13 0.58,0.36 0.27,0.22 0.44,0.56 0.17,0.33 0.17,0.84 0,0.87 -0.57,1.35 -0.56,0.47 -1.71,0.47 -0.77,0 -1.23,-0.16 -0.46,-0.17 -0.69,-0.31 l 0.36,-1 q 0.27,0.16 0.64,0.3 0.38,0.14 0.92,0.14 z"
                 style="font-style:normal;font-variant:normal;font-weight:bold;font-stretch:normal;font-size:10px;font-family:'Ubuntu Mono';-inkscape-font-specification:'Ubuntu Mono Bold';fill:#39c571;fill-opacity:1"
                 id="path4211"
                 inkscape:connector-curvature="0" />
            </g>
          </g>
        </g>
      </g>
    </g>
  </g>
</svg>
